/* XPM */
static const char * open_xpm[] = {
"30 23 84 1",
" 	c None",
".	c #727272",
"+	c #7C7C7C",
"@	c #717171",
"#	c #313131",
"$	c #000000",
"%	c #323232",
"&	c #3E3E3E",
"*	c #020202",
"=	c #9C9C9C",
"-	c #BABABA",
";	c #010101",
">	c #828282",
",	c #FFFFFF",
"'	c #868686",
")	c #9B9B9B",
"!	c #9A9A9A",
"~	c #797979",
"{	c #888888",
"]	c #767676",
"^	c #757575",
"/	c #BBBBBB",
"(	c #4F4F4F",
"_	c #FEFEFE",
":	c #D7D7D7",
"<	c #CECECE",
"[	c #CCCCCC",
"}	c #7A7A7A",
"|	c #737373",
"1	c #EAEAEA",
"2	c #272727",
"3	c #F2F2F2",
"4	c #040404",
"5	c #090909",
"6	c #C3B88B",
"7	c #BBAF7A",
"8	c #D4D4D4",
"9	c #858585",
"0	c #7E7E7E",
"a	c #242424",
"b	c #4D4D4D",
"c	c #F4F4F4",
"d	c #808080",
"e	c #2F2F2F",
"f	c #FBFBFB",
"g	c #6A6A6A",
"h	c #CDCDCD",
"i	c #E5E5E5",
"j	c #999999",
"k	c #A1A1A1",
"l	c #F8F8F8",
"m	c #C5C5C5",
"n	c #484848",
"o	c #EFEFEF",
"p	c #959595",
"q	c #454545",
"r	c #DEDEDE",
"s	c #212121",
"t	c #181818",
"u	c #DCDCDC",
"v	c #B9B9B9",
"w	c #383838",
"x	c #4C4C4C",
"y	c #C1C1C1",
"z	c #D8D8D8",
"A	c #0F0F0F",
"B	c #151515",
"C	c #EBEBEB",
"D	c #404040",
"E	c #747474",
"F	c #FAFAFA",
"G	c #666666",
"H	c #111111",
"I	c #C4C4C4",
"J	c #F7F7F7",
"K	c #DDDDDD",
"L	c #434343",
"M	c #5A5A5A",
"N	c #1A1A1A",
"O	c #131313",
"P	c #565656",
"Q	c #696969",
"R	c #494949",
"S	c #4A4A4A",
"   .+++++@                    ",
"  #$$$$$$$%                   ",
" &*=-----=;&                  ",
" $>,,,,,,,'$                  ",
" $),,,,,,,!$~{{{{{{{]^        ",
" $),,,,,,,/$$$$$$$$$$$(       ",
" $),,,,,,,_:<<<<<<<<[}$|      ",
" $),,,,,,,,,,,,,,,,,,1$2      ",
" $),,,,,,,,,,,,,,,,,,345      ",
"6$),,,,,,,,,,,,,,,,,,345      ",
"7$),,,,_8=999999999990;5aaab  ",
" $),,,cd$$$$$$$$$$$$$$$$$$$$e ",
" $),,f}$ghiiiiiiiiiiiiiiiiij$ ",
" $),,k$.l,,,,,,,,,,,,,,,,,lg$ ",
" $),m$no,,,,,,,,,,,,,,,,,_p$q ",
" $)rstu,,,,,,,,,,,,,,,,,,v$w  ",
" $0x$y,,,,,,,,,,,,,,,,,,zAB   ",
" $$$),,,,,,,,,,,,,,,,,,CD$+   ",
" $$EF,,,,,,,,,,,,,,,,,lg$G    ",
" H$IJJJJJJJJJJJJJJJJJK]$L     ",
" M$$NNNNNNNNNNNNNNNNO$$P      ",
"  QRSSSSSSSSSSSSSSSSbD@       ",
"                              "};
